<svg xmlns="http://www.w3.org/2000/svg" viewBox="0 0 48 48"><path d="M24 4C12.95 4 4 12.95 4 24c0 8.84 5.73 16.31 13.69 18.95.99.18 1.35-.43 1.35-.95 0-.47-.02-1.72-.03-3.38-5.56.96-6.73-2.39-6.73-2.39-.9-2.28-2.2-2.88-2.2-2.88-1.8-.96.14-.94.14-.94 2 .14 3.05 2.05 3.05 2.05 1.78 3.05 4.68 2.17 5.82 1.66.18-1.29.7-2.17 1.26-2.67-4.45-.5-9.13-2.22-9.13-9.9 0-2.2.79-3.99 2.08-5.4-.21-.51-.9-2.55.2-5.32 0 0 1.68-.54 5.5 2.04 1.6-.44 3.3-.66 5-.67 1.7.01 3.4.23 5 .67 3.82-2.58 5.5-2.04 5.5-2.04 1.1 2.77.41 4.81.2 5.32 1.29 1.41 2.08 3.2 2.08 5.4 0 7.68-4.68 9.39-9.15 9.88.72.62 1.36 1.85 1.36 3.73 0 2.69-.02 4.86-.02 5.52 0 .52.36 1.14 1.36.95C38.27 40.31 44 32.84 44 24c0-11.05-8.95-20-20-20z"/></svg>